<mxfile host="65bd71144e">
    <diagram id="pIsPSVw4wNhW4OB5O9Dt" name="Page-1">
        <mxGraphModel dx="991" dy="583" grid="1" gridSize="10" guides="1" tooltips="1" connect="1" arrows="1" fold="1" page="1" pageScale="1" pageWidth="850" pageHeight="1100" math="0" shadow="0">
            <root>
                <mxCell id="0"/>
                <mxCell id="1" parent="0"/>
                <mxCell id="165" value="Material" style="rounded=0;whiteSpace=wrap;html=1;shadow=1;fontFamily=Lucida Console;fillColor=#f5f5f5;strokeColor=#666666;fontColor=#333333;" parent="1" vertex="1">
                    <mxGeometry x="200" width="80" height="40" as="geometry"/>
                </mxCell>
                <mxCell id="209" style="edgeStyle=orthogonalEdgeStyle;rounded=0;html=1;exitX=0.5;exitY=0;exitDx=0;exitDy=0;endArrow=block;endFill=0;" parent="1" source="166" target="165" edge="1">
                    <mxGeometry relative="1" as="geometry"/>
                </mxCell>
                <mxCell id="213" style="edgeStyle=orthogonalEdgeStyle;rounded=0;html=1;exitX=0.5;exitY=1;exitDx=0;exitDy=0;entryX=0.5;entryY=0;entryDx=0;entryDy=0;endArrow=none;endFill=0;startArrow=diamondThin;startFill=1;" parent="1" source="166" target="191" edge="1">
                    <mxGeometry relative="1" as="geometry"/>
                </mxCell>
                <mxCell id="229" style="edgeStyle=orthogonalEdgeStyle;rounded=0;html=1;exitX=1;exitY=0.5;exitDx=0;exitDy=0;entryX=0;entryY=0.5;entryDx=0;entryDy=0;fontFamily=Lucida Console;startArrow=none;startFill=0;endArrow=open;endFill=0;dashed=1;" parent="1" source="166" target="228" edge="1">
                    <mxGeometry relative="1" as="geometry">
                        <Array as="points">
                            <mxPoint x="120" y="140"/>
                            <mxPoint x="120" y="200"/>
                        </Array>
                    </mxGeometry>
                </mxCell>
                <mxCell id="166" value="Compute&lt;br&gt;Material" style="rounded=0;whiteSpace=wrap;html=1;shadow=1;fontFamily=Lucida Console;fillColor=#f8cecc;strokeColor=#b85450;" parent="1" vertex="1">
                    <mxGeometry y="120" width="80" height="40" as="geometry"/>
                </mxCell>
                <mxCell id="210" style="edgeStyle=orthogonalEdgeStyle;rounded=0;html=1;exitX=0.5;exitY=0;exitDx=0;exitDy=0;endArrow=block;endFill=0;" parent="1" source="169" edge="1">
                    <mxGeometry relative="1" as="geometry">
                        <mxPoint x="240" y="40" as="targetPoint"/>
                    </mxGeometry>
                </mxCell>
                <mxCell id="217" style="edgeStyle=orthogonalEdgeStyle;rounded=0;html=1;exitX=0.5;exitY=1;exitDx=0;exitDy=0;entryX=0.5;entryY=0;entryDx=0;entryDy=0;startArrow=diamondThin;startFill=1;endArrow=none;endFill=0;jumpStyle=arc;" parent="1" source="169" target="215" edge="1">
                    <mxGeometry relative="1" as="geometry"/>
                </mxCell>
                <mxCell id="233" style="edgeStyle=orthogonalEdgeStyle;rounded=0;jumpStyle=arc;html=1;exitX=1;exitY=0.5;exitDx=0;exitDy=0;dashed=1;fontFamily=Lucida Console;startArrow=none;startFill=0;endArrow=none;endFill=0;" parent="1" source="169" edge="1">
                    <mxGeometry relative="1" as="geometry">
                        <mxPoint x="520" y="200" as="targetPoint"/>
                    </mxGeometry>
                </mxCell>
                <mxCell id="169" value="RayTracing&lt;br&gt;Material" style="rounded=0;whiteSpace=wrap;html=1;shadow=1;fontFamily=Lucida Console;fillColor=#dae8fc;strokeColor=#6c8ebf;" parent="1" vertex="1">
                    <mxGeometry x="400" y="120" width="80" height="40" as="geometry"/>
                </mxCell>
                <mxCell id="234" style="edgeStyle=orthogonalEdgeStyle;rounded=0;jumpStyle=none;html=1;exitX=0.5;exitY=1;exitDx=0;exitDy=0;entryX=0.5;entryY=0;entryDx=0;entryDy=0;fontFamily=Lucida Console;startArrow=none;startFill=0;endArrow=block;endFill=0;" parent="1" source="214" target="189" edge="1">
                    <mxGeometry relative="1" as="geometry"/>
                </mxCell>
                <mxCell id="239" style="edgeStyle=orthogonalEdgeStyle;rounded=0;jumpStyle=none;html=1;exitX=1;exitY=0.5;exitDx=0;exitDy=0;entryX=0;entryY=0.5;entryDx=0;entryDy=0;fontFamily=Lucida Console;startArrow=none;startFill=0;endArrow=diamondThin;endFill=1;" parent="1" source="237" target="189" edge="1">
                    <mxGeometry relative="1" as="geometry"/>
                </mxCell>
                <mxCell id="189" value="Material&lt;br&gt;Layout" style="rounded=0;whiteSpace=wrap;html=1;shadow=1;fontFamily=Lucida Console;fillColor=#f5f5f5;fontColor=#333333;strokeColor=#666666;" parent="1" vertex="1">
                    <mxGeometry x="200" y="400" width="80" height="40" as="geometry"/>
                </mxCell>
                <mxCell id="235" style="edgeStyle=orthogonalEdgeStyle;rounded=0;jumpStyle=none;html=1;exitX=0.5;exitY=1;exitDx=0;exitDy=0;entryX=0.5;entryY=0;entryDx=0;entryDy=0;fontFamily=Lucida Console;startArrow=none;startFill=0;endArrow=block;endFill=0;" parent="1" source="191" target="189" edge="1">
                    <mxGeometry relative="1" as="geometry"/>
                </mxCell>
                <mxCell id="191" value="Compute&lt;br&gt;Material&lt;br&gt;Layout" style="rounded=0;shadow=1;fontFamily=Lucida Console;fillColor=#f8cecc;strokeColor=#b85450;align=center;html=1;whiteSpace=wrap;" parent="1" vertex="1">
                    <mxGeometry y="240" width="80" height="80" as="geometry"/>
                </mxCell>
                <mxCell id="198" style="edgeStyle=none;html=1;exitX=0;exitY=0.5;exitDx=0;exitDy=0;entryX=1;entryY=0.5;entryDx=0;entryDy=0;endArrow=diamondThin;endFill=1;" parent="1" source="196" target="189" edge="1">
                    <mxGeometry relative="1" as="geometry"/>
                </mxCell>
                <mxCell id="196" value="MaterialLayout&lt;br&gt;Description" style="rounded=0;whiteSpace=wrap;html=1;shadow=1;fontFamily=Lucida Console;fillColor=#f5f5f5;fontColor=#333333;strokeColor=#666666;" parent="1" vertex="1">
                    <mxGeometry x="320" y="400" width="160" height="40" as="geometry"/>
                </mxCell>
                <mxCell id="216" style="edgeStyle=orthogonalEdgeStyle;rounded=0;html=1;exitX=0.5;exitY=1;exitDx=0;exitDy=0;entryX=0.5;entryY=0;entryDx=0;entryDy=0;startArrow=diamondThin;startFill=1;endArrow=none;endFill=0;jumpStyle=arc;" parent="1" source="168" target="214" edge="1">
                    <mxGeometry relative="1" as="geometry"/>
                </mxCell>
                <mxCell id="232" style="edgeStyle=orthogonalEdgeStyle;rounded=0;jumpStyle=arc;html=1;exitX=1;exitY=0.5;exitDx=0;exitDy=0;dashed=1;fontFamily=Lucida Console;startArrow=none;startFill=0;endArrow=none;endFill=0;" parent="1" source="168" edge="1">
                    <mxGeometry relative="1" as="geometry">
                        <mxPoint x="320" y="200" as="targetPoint"/>
                    </mxGeometry>
                </mxCell>
                <mxCell id="168" value="Graphics&lt;br&gt;Material" style="rounded=0;whiteSpace=wrap;html=1;shadow=1;fontFamily=Lucida Console;fillColor=#d5e8d4;strokeColor=#82b366;" parent="1" vertex="1">
                    <mxGeometry x="200" y="120" width="80" height="40" as="geometry"/>
                </mxCell>
                <mxCell id="206" style="edgeStyle=orthogonalEdgeStyle;rounded=0;html=1;exitX=0.5;exitY=0;exitDx=0;exitDy=0;endArrow=block;endFill=0;entryX=0.5;entryY=1;entryDx=0;entryDy=0;" parent="1" source="168" target="165" edge="1">
                    <mxGeometry relative="1" as="geometry">
                        <mxPoint x="280" y="60" as="targetPoint"/>
                    </mxGeometry>
                </mxCell>
                <mxCell id="244" style="edgeStyle=none;html=1;exitX=1;exitY=0.5;exitDx=0;exitDy=0;entryX=0;entryY=0.5;entryDx=0;entryDy=0;dashed=1;endArrow=open;endFill=0;" parent="1" source="214" target="243" edge="1">
                    <mxGeometry relative="1" as="geometry"/>
                </mxCell>
                <mxCell id="214" value="Graphics&lt;br&gt;Material&lt;br&gt;Layout" style="rounded=0;whiteSpace=wrap;html=1;shadow=1;fontFamily=Lucida Console;fillColor=#d5e8d4;strokeColor=#82b366;verticalAlign=middle;" parent="1" vertex="1">
                    <mxGeometry x="200" y="240" width="80" height="80" as="geometry"/>
                </mxCell>
                <mxCell id="236" style="edgeStyle=orthogonalEdgeStyle;rounded=0;jumpStyle=none;html=1;exitX=0.5;exitY=1;exitDx=0;exitDy=0;entryX=0.5;entryY=0;entryDx=0;entryDy=0;fontFamily=Lucida Console;startArrow=none;startFill=0;endArrow=block;endFill=0;" parent="1" source="215" target="189" edge="1">
                    <mxGeometry relative="1" as="geometry"/>
                </mxCell>
                <mxCell id="215" value="RayTracing&lt;br&gt;Material&lt;br&gt;Layout" style="rounded=0;whiteSpace=wrap;html=1;shadow=1;fontFamily=Lucida Console;fillColor=#dae8fc;strokeColor=#6c8ebf;" parent="1" vertex="1">
                    <mxGeometry x="400" y="240" width="80" height="80" as="geometry"/>
                </mxCell>
                <mxCell id="228" value="sol.core&lt;br&gt;Vulkan&lt;br&gt;Shader&lt;br&gt;Module" style="rounded=0;whiteSpace=wrap;html=1;shadow=1;fontFamily=Lucida Console;fillColor=#f5f5f5;fontColor=#333333;strokeColor=#666666;dashed=1;dashPattern=1 4;" parent="1" vertex="1">
                    <mxGeometry x="560" y="160" width="80" height="80" as="geometry"/>
                </mxCell>
                <mxCell id="237" value="VulkanDescriptor&lt;br&gt;SetLayout[]" style="rounded=0;whiteSpace=wrap;html=1;shadow=1;fontFamily=Lucida Console;fillColor=#f5f5f5;fontColor=#333333;strokeColor=#666666;" parent="1" vertex="1">
                    <mxGeometry y="400" width="160" height="40" as="geometry"/>
                </mxCell>
                <mxCell id="242" style="edgeStyle=orthogonalEdgeStyle;rounded=0;jumpStyle=none;html=1;exitX=1;exitY=0.5;exitDx=0;exitDy=0;entryX=0;entryY=0.5;entryDx=0;entryDy=0;fontFamily=Lucida Console;startArrow=none;startFill=0;endArrow=diamondThin;endFill=1;" parent="1" source="238" target="189" edge="1">
                    <mxGeometry relative="1" as="geometry"/>
                </mxCell>
                <mxCell id="238" value="VkPushConstantRange[]" style="rounded=0;whiteSpace=wrap;html=1;shadow=1;fontFamily=Lucida Console;fillColor=#f5f5f5;fontColor=#333333;strokeColor=#666666;" parent="1" vertex="1">
                    <mxGeometry y="460" width="160" height="40" as="geometry"/>
                </mxCell>
                <mxCell id="243" value="sol.mesh&lt;br&gt;MeshLayout" style="rounded=0;whiteSpace=wrap;html=1;shadow=1;fontFamily=Lucida Console;fillColor=#f5f5f5;fontColor=#333333;strokeColor=#666666;dashed=1;dashPattern=1 4;" parent="1" vertex="1">
                    <mxGeometry x="300" y="260" width="80" height="40" as="geometry"/>
                </mxCell>
            </root>
        </mxGraphModel>
    </diagram>
</mxfile>